<?xml version="1.0" encoding="UTF-8"?>
<svg width="103px" height="60px" viewBox="0 0 103 60" version="1.1" xmlns="http://www.w3.org/2000/svg" xmlns:xlink="http://www.w3.org/1999/xlink">
    <!-- Generator: Sketch 41 (35326) - http://www.bohemiancoding.com/sketch -->
    <title>Group 7</title>
    <desc>Created with Sketch.</desc>
    <defs>
        <linearGradient x1="0%" y1="0%" x2="57.0620888%" y2="55.5320946%" id="linearGradient-1">
            <stop stop-color="#EEEEEE" offset="0%"></stop>
            <stop stop-color="#D8D8D8" stop-opacity="0" offset="100%"></stop>
        </linearGradient>
    </defs>
    <g id="Page-1" stroke="none" stroke-width="1" fill="none" fill-rule="evenodd">
        <g id="iPhone-7" transform="translate(-254.000000, -4.000000)">
            <g id="Group-7" transform="translate(254.000000, 4.000000)">
                <g id="Page-1">
                    <polygon id="Fill-1" fill="#FFFFFF" opacity="0.400000006" points="15.31305 26.6361913 5.73071667 35.5485391 0.372716667 29.9194957 9.95505 21.0061043"></polygon>
                    <path d="M0,29.9084348 L5.71952778,35.9173043 L15.6860833,26.6470435 L9.96655556,20.6371304 L0,29.9084348 Z M0.74575,29.9303478 L9.94386111,21.3748696 L14.9403333,26.6251304 L5.74222222,35.180087 L0.74575,29.9303478 Z" id="Fill-3" fill="#FFFFFF"></path>
                    <polygon id="Fill-4" fill="#FFFFFF" opacity="0.400000006" points="37.4992972 5.99796522 27.9164361 14.9113565 22.5584361 9.28231304 32.1412972 0.368921739"></polygon>
                    <path d="M32.152275,-5.2173913e-05 L22.1851917,9.27125217 L27.9052472,15.2801217 L37.8723306,6.00881739 L32.152275,-5.2173913e-05 Z M22.9309417,9.29368696 L32.1301083,0.737686957 L37.1265806,5.98690435 L27.9279417,14.5429043 L22.9309417,9.29368696 Z" id="Fill-6" fill="#FFFFFF"></path>
                    <g id="Group-9" transform="translate(21.638889, 9.308765)">
                        <polyline id="Fill-7" fill="#D1D2D4" points="3.79313889 2.60973913 3.59786111 2.78713043 3.40786111 2.96452174 0.832305556 5.35930435 0.642305556 5.54191304 0.447027778 5.71982609 0.642305556 5.54191304 0.832305556 5.35930435 3.40786111 2.96452174 3.59786111 2.78713043 3.79313889 2.60973913 6.42147222 0.163304348"></polyline>
                        <polyline id="Stroke-8" stroke="#FFFFFF" stroke-width="1.041" points="3.79313889 2.60973913 3.59786111 2.78713043 3.40786111 2.96452174 0.832305556 5.35930435 0.642305556 5.54191304 0.447027778 5.71982609 0.642305556 5.54191304 0.832305556 5.35930435 3.40786111 2.96452174 3.59786111 2.78713043 3.79313889 2.60973913 6.42147222 0.163304348"></polyline>
                    </g>
                    <polyline id="Stroke-10" stroke="#221F20" stroke-width="1.041" points="15.6893028 20.9811652 15.494025 21.1590783 15.304025 21.3364696 12.8234694 23.6425565 12.6334694 23.8194261 12.4381917 24.0020348"></polyline>
                    <polyline id="Stroke-11" stroke="#FFFFFF" stroke-width="1.041" points="9.8363 26.4232174 12.4382444 24.0018261 12.6335222 23.8197391 12.8235222 23.6423478 15.3040778 21.3362609 15.4940778 21.1588696 15.6893556 20.9809565"></polyline>
                    <g id="Group-16" transform="translate(13.722222, 12.960939)" fill="#FFFFFF">
                        <path d="M8.55733611,1.88723478 C10.3201139,3.7394087 10.2303917,6.65332174 8.35678056,8.39593043 C6.48369722,10.1380174 3.53658611,10.0498435 1.77328056,8.1981913 C0.0110305556,6.34653913 0.100752778,3.43210435 1.97330833,1.68949565 C3.84744722,-0.0531130435 6.79455833,0.0355826087 8.55733611,1.88723478" id="Fill-12" opacity="0.419999987"></path>
                        <path d="M5.164675,0.699547826 C4.04156389,0.699547826 2.97281389,1.11902609 2.15423056,1.87972174 C0.390397222,3.52111304 0.305425,6.27537391 1.96581389,8.01850435 C2.80498056,8.90024348 3.94181389,9.38598261 5.16625833,9.38598261 C6.28884167,9.38598261 7.35811944,8.96650435 8.176175,8.20528696 C9.031175,7.41015652 9.52148056,6.33433043 9.55684167,5.17450435 C9.59273056,4.01467826 9.16945278,2.9112 8.36511944,2.06650435 C7.52595278,1.18528696 6.38964722,0.699547826 5.164675,0.699547826 M5.16625833,9.90772174 C3.79456389,9.90772174 2.52156389,9.36354783 1.58106389,8.37641739 C-0.278297222,6.42354783 -0.183297222,3.33850435 1.79270278,1.49937391 C2.70945278,0.646852174 3.90698056,0.177808696 5.164675,0.177808696 C6.53636944,0.177808696 7.80989722,0.72146087 8.74934167,1.70911304 C9.65025833,2.65502609 10.1242028,3.89154783 10.0846194,5.19015652 C10.0445083,6.48928696 9.49509167,7.69502609 8.53770278,8.58511304 C7.62148056,9.43815652 6.42395278,9.90772174 5.16625833,9.90772174" id="Fill-14"></path>
                    </g>
                </g>
                <polygon id="Path-2" fill="url(#linearGradient-1)" points="23 23 26 60 62 29"></polygon>
                <g id="Page-1" transform="translate(26.000000, 28.000000)" fill="#F0F1F1">
                    <polygon id="Fill-1" points="42.597237 30.0942316 42.4532804 29.7717053 42.3888348 29.3456 41.6874652 29.6007579 41.1099652 29.6866526 41.036313 29.9906526 41.8598783 30.2828632 42.2900739 30.4293895"></polygon>
                    <polygon id="Fill-2" points="51.3746511 30.4291368 50.9201837 30.6842947 50.4288902 30.8560842 50.2556402 31.1962947 50.4288902 31.3908211 51.1721076 31.3908211 51.473412 31.1962947 51.742912 31.0741895 51.915325 30.9276632 51.779738 30.7087158 51.6818141 30.5992421 51.7554663 30.3685053 51.915325 30.1739789 51.915325 29.9904"></polygon>
                    <polygon id="Fill-3" points="38.6016065 30.4988632 37.2030522 30.2672842 35.1633891 30.2672842 33.7631609 30.8441263 32.5412043 31.3645474 31.5494109 31.1329684 30.7342152 30.6714947 29.8018457 31.5371789 29.293813 31.8386526 39.7055522 31.8386526 40.2328348 30.3245474 39.3590522 30.0938105"></polygon>
                    <polygon id="Fill-4" points="38.2483272 27.5764211 38.3219793 27.8029474 38.5580011 27.9898947 38.5580011 27.8164211 38.6257946 27.4964211 38.3964685 27.3498947"></polygon>
                    <g id="Group-13" transform="translate(0.000000, 0.680926)">
                        <path d="M75.3177174,25.5131789 C75.1059674,24.9548632 74.8825,24.3982316 74.6439674,23.8441263 C74.5376739,23.5948632 74.4280326,23.3481263 74.3150435,23.1022316 C74.2330217,22.9203368 74.1593696,22.7376 74.073163,22.5565474 C73.8589022,22.1051789 73.6354348,21.6588632 73.4061087,21.2184421 C73.3835109,21.1746526 73.3584022,21.1325474 73.3349674,21.0887579 C72.9717283,20.3990737 72.5892391,19.7253895 72.1908478,19.0668632 C72.1649022,19.0247579 72.1406304,18.9826526 72.1146848,18.9405474 C71.687,18.2390737 71.2375543,17.5569684 70.7713696,16.8917053 C70.7604891,16.8757053 70.7504457,16.8605474 70.7395652,16.8453895 C67.7918043,12.6474947 64.101663,9.16117895 59.9344565,6.47907368 C59.9110217,6.46391579 59.887587,6.44875789 59.8641522,6.43444211 C59.1853804,5.99907368 58.4948913,5.5856 57.7926848,5.19317895 C57.7340978,5.16117895 57.6755109,5.13002105 57.616087,5.09802105 C56.9289457,4.71907368 56.2325978,4.35865263 55.5253696,4.02265263 C55.4559022,3.98812632 55.3847609,3.95781053 55.3152935,3.92496842 C54.6005326,3.58981053 53.8774022,3.27233684 53.1433913,2.98012632 C53.0981957,2.96244211 53.052163,2.94728421 53.0069674,2.92875789 C52.2595652,2.63570526 51.5037935,2.36286316 50.7396522,2.11444211 C50.7120326,2.10517895 50.684413,2.09507368 50.6559565,2.08581053 C49.8633587,1.83065263 49.0632283,1.60244211 48.2555652,1.39696842 C48.2287826,1.39023158 48.2036739,1.38096842 48.1760543,1.37423158 C48.1760543,1.37423158 48.1752174,1.37507368 48.1752174,1.37591579 C45.0165435,0.576757895 41.7499022,0.1616 38.4522935,0.1616 C38.2171087,0.1616 37.979413,0.175915789 37.7425543,0.180126316 C37.5868804,0.181810526 37.4312065,0.187705263 37.2772065,0.192757895 C35.9564891,0.232336842 34.6340978,0.338442105 33.3108696,0.511915789 C33.1150217,0.537178947 32.9191739,0.5616 32.724163,0.590231579 C32.3533913,0.644968421 31.9817826,0.703915789 31.6110109,0.7696 C31.3523913,0.815073684 31.0962826,0.866442105 30.839337,0.916968421 C30.3731522,1.00875789 29.9061304,1.10812632 29.4416196,1.21675789 C29.0415543,1.31023158 28.644,1.40707368 28.2489565,1.51233684 C27.9928478,1.58138947 27.7375761,1.65465263 27.4814674,1.72875789 C27.0738696,1.84665263 26.6696196,1.97128421 26.2678804,2.10181053 C26.0745435,2.16496842 25.8803696,2.22391579 25.6870326,2.29044211 C25.0919565,2.49338947 24.5019022,2.71065263 23.9185435,2.94054737 C23.7896522,2.99191579 23.6615978,3.04749474 23.5310326,3.09970526 C23.0188152,3.30854737 22.5107826,3.52833684 22.0086087,3.75823158 C21.9232391,3.79612632 21.8378696,3.82896842 21.7525,3.86854737 C21.6989348,3.89381053 21.6478804,3.9216 21.5943152,3.94770526 C21.0519674,4.20370526 20.5129674,4.46728421 19.982337,4.74770526 C19.8802283,4.8016 19.7814674,4.85970526 19.6801957,4.91444211 C19.2734348,5.13338947 18.8708587,5.35907368 18.4716304,5.59233684 C18.22975,5.73465263 17.9912174,5.88033684 17.7526848,6.02602105 C17.5149891,6.17254737 17.2781304,6.31991579 17.0446196,6.47149474 C16.7642391,6.65254737 16.4838587,6.83275789 16.2085,7.01970526 C16.0770978,7.10981053 15.9490435,7.20244211 15.8184783,7.29338947 C14.7245761,8.05549474 13.6792174,8.86728421 12.6840761,9.72286316 C12.6154457,9.78181053 12.5459783,9.83991579 12.4781848,9.89970526 C12.1400543,10.1944421 11.8069457,10.4942316 11.4805326,10.7990737 C11.4403587,10.8361263 11.4010217,10.8748632 11.3608478,10.9127579 C10.3456196,11.8693895 9.38981522,12.8740211 8.49259783,13.9207579 C8.41894565,14.0074947 8.34445652,14.0917053 8.27080435,14.1792842 C8.02557609,14.4714947 7.78704348,14.7662316 7.55018478,15.0651789 C7.42966304,15.2167579 7.30997826,15.3708632 7.19196739,15.5249684 C6.97938043,15.8003368 6.7701413,16.0773895 6.56592391,16.3586526 C6.42447826,16.5531789 6.28805435,16.7519158 6.14911957,16.9498105 C5.96917391,17.2083368 5.78755435,17.4643368 5.61346739,17.7262316 C5.32220652,18.1641263 5.04015217,18.6079158 4.76646739,19.0601263 C4.65013043,19.2512842 4.543,19.4458105 4.43084783,19.6394947 C4.25090217,19.9485474 4.07179348,20.2576 3.89938043,20.5733895 C3.78388043,20.7847579 3.67423913,20.9969684 3.56292391,21.2091789 C3.40390217,21.5148632 3.24655435,21.8222316 3.09422826,22.1338105 C2.99044565,22.3468632 2.8875,22.5607579 2.78790217,22.7763368 C2.63641304,23.1013895 2.48994565,23.4298105 2.34682609,23.7590737 C2.26145652,23.9611789 2.17273913,24.1616 2.08904348,24.3645474 C2.05723913,24.4403368 2.02376087,24.5136 1.99195652,24.5893895 C1.99697826,24.5834947 2.002,24.5776 2.0078587,24.5717053 C1.14244565,26.7013895 0.477065217,28.9077053 0,31.1578105 L1.63625,31.1578105 C1.67558696,30.9784421 1.70571739,30.7965474 1.74840217,30.6171789 L1.94090217,31.1578105 L2.55606522,31.1578105 L2.34431522,30.4243368 L2.32506522,29.0954947 L2.27233696,28.6559158 C3.24069565,25.3691789 4.65682609,22.2171789 6.4931087,19.3001263 C6.79692391,19.0769684 7.10073913,18.8538105 7.40371739,18.6298105 C7.78369565,18.2820211 8.16283696,17.9325474 8.54197826,17.5839158 C9.10441304,17.3691789 9.66684783,17.1544421 10.2292826,16.9397053 C10.5406304,16.8117053 10.8519783,16.6853895 11.164163,16.5573895 C11.1976413,16.7712842 11.2319565,16.9877053 11.2654348,17.2016 C11.5767826,17.2083368 11.8881304,17.2150737 12.2003152,17.2209684 C12.64725,17.0736 13.0941848,16.9262316 13.5411196,16.7788632 C13.1285,16.6314947 12.7142065,16.4832842 12.3024239,16.3367579 C12.5727609,16.0942316 12.8439348,15.8533895 13.1142717,15.6117053 C13.3310435,15.3902316 13.5486522,15.1687579 13.764587,14.9464421 C13.6700109,14.7123368 13.5754348,14.4765474 13.4808587,14.2432842 C13.7369674,14.2154947 13.995587,14.1893895 14.2525326,14.1616 C14.5437935,14.4310737 14.8350543,14.6980211 15.1263152,14.9666526 C15.4301304,14.9599158 15.7347826,14.9531789 16.0402717,14.9464421 C16.3189783,14.9329684 16.5951739,14.9203368 16.8738804,14.9068632 C17.0772609,14.5506526 17.2798043,14.1952842 17.4831848,13.8399158 C17.6254674,13.3363368 17.766913,12.8336 17.9091957,12.3300211 C18.5737391,11.5249684 19.2374457,10.7199158 19.9011522,9.91402105 C19.4332935,10.0352842 18.9671087,10.1565474 18.49925,10.2769684 C18.8440761,9.84749474 19.1905761,9.41802105 19.5345652,8.98938947 C19.7722609,8.61381053 20.0091196,8.23738947 20.2459783,7.86181053 C19.8534457,8.03696842 19.4600761,8.21044211 19.0675435,8.3856 C18.498413,8.81507368 17.9301196,9.24454737 17.3609891,9.67317895 C16.919913,9.87444211 16.4796739,10.0765474 16.0394348,10.2769684 C15.4234348,10.5186526 14.8074348,10.7594947 14.1897609,11.0020211 C14.765587,10.5119158 15.341413,10.0218105 15.9164022,9.53254737 C16.0645435,9.29675789 16.2110109,9.06181053 16.3583152,8.82686316 C17.8422391,7.76412632 19.4207391,6.79738947 21.0913043,5.93928421 C21.3574565,5.9696 21.6244457,5.99991579 21.8922717,6.03023158 C21.926587,6.31149474 21.9592283,6.5936 21.9943804,6.87570526 C21.7776087,7.24454737 21.56,7.61338947 21.3432283,7.98223158 C21.1674674,8.29128421 20.9917065,8.59949474 20.8159457,8.90854737 C21.30975,8.91528421 21.8043913,8.92202105 22.2981957,8.92791579 C22.8271522,8.65254737 23.3552717,8.37717895 23.8842283,8.10265263 C24.4935326,7.82138947 25.1036739,7.53844211 25.7129783,7.25717895 C26.2544891,7.02138947 26.796,6.78728421 27.3383478,6.55233684 C27.1282717,6.43191579 26.9181957,6.31065263 26.7081196,6.19023158 C26.6880326,5.98223158 26.6671087,5.77507368 26.6478587,5.56623158 C26.8771848,5.30517895 27.1081848,5.04328421 27.3383478,4.78138947 C27.4597065,4.51949474 27.5827391,4.2576 27.7040978,3.99570526 C27.8865543,4.15738947 28.0698478,4.31738947 28.2523043,4.47907368 C28.3401848,4.36538947 28.4289022,4.25086316 28.5167826,4.13717895 C28.7268587,4.20370526 28.9360978,4.27191579 29.1470109,4.33844211 C29.5202935,4.37212632 29.8910652,4.40581053 30.2643478,4.43949474 C30.0140978,4.76791579 29.7630109,5.09717895 29.5127609,5.4256 C29.3704783,5.58728421 29.2290326,5.74728421 29.085913,5.90896842 C28.8021848,6.24496842 28.5167826,6.58012632 28.2322174,6.91528421 C27.7794239,7.30433684 27.3249565,7.69338947 26.8713261,8.08244211 C26.5733696,8.17675789 26.275413,8.27023158 25.9774565,8.36454737 C25.6661087,8.67949474 25.3539239,8.99444211 25.0425761,9.31023158 C24.7312283,9.47107368 24.4198804,9.63191579 24.1085326,9.7936 C23.7829565,10.1152842 23.4582174,10.4369684 23.1334783,10.7586526 C22.9778043,11.0138105 22.8221304,11.2689684 22.6656196,11.5232842 C22.7468043,11.6041263 22.8279891,11.6849684 22.9100109,11.7658105 C22.848913,11.9594947 22.7878152,12.1548632 22.7275543,12.3485474 C22.927587,12.4504421 23.1284565,12.5523368 23.3293261,12.6542316 C23.5394022,12.4799158 23.7494783,12.3056 23.9595543,12.1312842 C24.2508152,11.9502316 24.5412391,11.7691789 24.8325,11.5881263 C25.1773261,11.3792842 25.5238261,11.1721263 25.8686522,10.9641263 C26.2344022,10.9237053 26.6001522,10.8824421 26.9659022,10.8428632 C27.4078152,10.6954947 27.8463804,10.5481263 28.2874565,10.4007579 C28.5109239,10.2592842 28.7343913,10.1194947 28.9595326,9.97802105 C29.182163,10.0310737 29.4047935,10.0858105 29.6290978,10.1388632 C30.1915326,10.0521263 30.7548043,9.96370526 31.3164022,9.87696842 C31.5398696,9.72370526 31.763337,9.56791579 31.9876413,9.41381053 C32.2588152,9.13928421 32.5291522,8.86391579 32.8003261,8.58854737 C33.1928587,8.22644211 33.5862283,7.86433684 33.9787609,7.50138947 C34.2022283,7.25970526 34.4256957,7.01886316 34.65,6.77633684 L35.5438696,5.95107368 C35.7807283,5.8576 36.0184239,5.76328421 36.2544457,5.66981053 C36.1029565,5.38181053 35.9531413,5.09465263 35.804163,4.80581053 C36.1088152,4.95991579 36.4134674,5.11402105 36.7189565,5.26896842 C37.267163,5.35570526 37.8162065,5.44328421 38.364413,5.53002105 C38.8933696,5.51654737 39.4214891,5.50391579 39.9496087,5.4896 C40.6141522,5.37591579 41.2778587,5.26223158 41.9407283,5.14854737 C42.1106304,4.93381053 42.2805326,4.71907368 42.4495978,4.50433684 C42.8220435,4.59865263 43.1944891,4.69212632 43.5669348,4.7856 C43.7435326,4.77212632 43.9192935,4.75949474 44.0958913,4.74517895 C44.0615761,4.47065263 44.0272609,4.19528421 43.9937826,3.91991579 C44.2097174,3.77928421 44.4273261,3.63781053 44.6440978,3.49717895 C44.9621413,3.38349474 45.2810217,3.26896842 45.5990652,3.15612632 C45.9715109,3.16875789 46.3447935,3.18223158 46.7172391,3.19570526 C46.7356522,3.03317895 46.7557391,2.87065263 46.7749891,2.70812632 C46.7448587,2.68202105 46.7138913,2.65591579 46.6845978,2.63065263 C47.4035435,2.79149474 48.1166304,2.97338947 48.8230217,3.17465263 C48.7954022,3.28833684 48.7669457,3.40286316 48.7393261,3.51738947 C48.5526848,3.40791579 48.3652065,3.30012632 48.1794022,3.19065263 C47.817,3.26728421 47.4545978,3.34307368 47.0930326,3.41886316 C47.1917935,3.69086316 47.2905543,3.96202105 47.3893152,4.23402105 C47.8337391,4.68538947 48.278163,5.13675789 48.72175,5.58812632 C48.7058478,5.96202105 48.6899457,6.3376 48.6723696,6.71233684 C48.9845543,6.95654737 49.2975761,7.2016 49.6105978,7.44581053 C49.3795978,7.82054737 49.1494348,8.19528421 48.9184348,8.57002105 C49.0665761,8.59696842 49.2155543,8.62475789 49.3628587,8.65086316 C49.5001196,8.80833684 49.6382174,8.96581053 49.7738043,9.12412632 C49.3787609,9.23781053 48.9837174,9.35149474 48.5886739,9.46517895 C48.451413,9.79696842 48.3141522,10.1296 48.1777283,10.4597053 C48.0404674,10.5632842 47.9032065,10.6668632 47.7667826,10.7696 C47.5583804,10.9110737 47.3499783,11.0517053 47.1415761,11.1931789 C46.9758587,11.0685474 46.8118152,10.9439158 46.6477717,10.8192842 C46.5155326,10.7148632 46.3841304,10.6112842 46.2518913,10.5085474 C46.0217283,10.4386526 45.7915652,10.3679158 45.5605652,10.2980211 C45.2157391,10.2702316 44.8692391,10.2441263 44.5235761,10.2163368 C44.3427935,10.1893895 44.1620109,10.1624421 43.9812283,10.1354947 C43.8766087,10.1194947 43.7728261,10.1026526 43.6690435,10.0866526 C43.5485217,9.97717895 43.427163,9.86938947 43.3066413,9.75991579 L42.6814348,9.75991579 C42.4512717,9.80370526 42.2202717,9.84665263 41.9901087,9.89044211 C41.7381848,9.95528421 41.484587,10.0209684 41.232663,10.0866526 C41.0569022,10.3030737 40.8819783,10.5211789 40.7062174,10.7376 C40.5957391,10.9826526 40.4860978,11.2268632 40.3772935,11.4710737 C40.2391957,11.6554947 40.1019348,11.8416 39.9655109,12.0260211 C39.75125,12.2491789 39.5378261,12.4714947 39.3235652,12.6938105 C39.1210217,12.8243368 38.9176413,12.9548632 38.7150978,13.0853895 C38.4949783,13.3405474 38.2756957,13.5965474 38.056413,13.8508632 C37.8195543,14.0630737 37.5843696,14.2752842 37.3483478,14.4866526 C37.3106848,14.6929684 37.2713478,14.9001263 37.2336848,15.1064421 C37.249587,15.2689684 37.2654891,15.4323368 37.2830652,15.5957053 C37.326587,15.7531789 37.3701087,15.9106526 37.4144674,16.0681263 C37.4914674,16.1978105 37.5676304,16.3291789 37.6446304,16.4588632 C37.7592935,16.5194947 37.8756304,16.5784421 37.9902935,16.6382316 C38.1878152,16.5456 38.385337,16.4538105 38.5828587,16.3620211 C38.5937391,16.2256 38.6046196,16.0900211 38.6155,15.9544421 C38.8791413,15.8946526 39.1427826,15.8348632 39.405587,15.7759158 C39.4173043,15.8727579 39.4273478,15.9704421 39.4382283,16.0689684 C39.559587,16.2862316 39.6809457,16.5034947 39.8014674,16.7207579 C39.8943696,16.8731789 39.9864348,17.0256 40.0801739,17.1780211 C40.0642717,17.2698105 40.0475326,17.3624421 40.0307935,17.4542316 C40.0416739,17.5906526 40.0525543,17.7262316 40.0634348,17.8618105 C40.2550978,17.8887579 40.4467609,17.9157053 40.6392609,17.9426526 C40.7539239,17.8449684 40.8694239,17.7472842 40.984087,17.6487579 C41.1816087,17.5131789 41.3791304,17.3767579 41.5766522,17.2411789 C41.5172283,17.0677053 41.4561304,16.8942316 41.3967065,16.7199158 C41.3749457,16.5456 41.3523478,16.3729684 41.330587,16.1978105 C41.6210109,16.0790737 41.9122717,15.9586526 42.2035326,15.8399158 C42.0980761,15.6824421 41.9934565,15.5249684 41.8896739,15.3674947 C41.6921522,15.2538105 41.4954674,15.1392842 41.2979457,15.0256 C41.309663,14.6778105 41.3197065,14.3291789 41.330587,13.9822316 C41.5666087,13.7919158 41.8026304,13.6016 42.0378152,13.4112842 C42.1097935,13.1999158 42.1809348,12.9877053 42.2512391,12.7754947 C42.3558587,12.6070737 42.4604783,12.4386526 42.5642609,12.2710737 C42.8161848,12.2761263 43.0689457,12.2820211 43.3208696,12.2870737 C43.3593696,12.4714947 43.3978696,12.6567579 43.4355326,12.8411789 C43.2229457,13.0096 43.0078478,13.1788632 42.793587,13.3464421 C42.7283043,13.5536 42.6621848,13.7590737 42.5960652,13.9653895 C42.7073804,14.2264421 42.8161848,14.4874947 42.9258261,14.7485474 C43.0304457,14.9009684 43.1342283,15.0533895 43.2388478,15.2049684 C43.5351304,15.1889684 43.831413,15.1729684 44.1276957,15.1561263 C44.275,15.0045474 44.4231413,14.8512842 44.5712826,14.7005474 C44.9060652,14.7763368 45.2416848,14.8512842 45.5747935,14.9279158 C45.5697717,15.0096 45.563913,15.0912842 45.5588913,15.1729684 C45.4274891,15.2437053 45.29525,15.3136 45.1638478,15.3834947 C44.8893261,15.4820211 44.6156413,15.5797053 44.3402826,15.6773895 C44.1427609,15.7262316 43.9452391,15.7759158 43.7477174,15.8239158 C43.6489565,15.9982316 43.5501957,16.1717053 43.4514348,16.3451789 C43.5225761,16.4260211 43.5937174,16.5085474 43.6648587,16.5893895 C43.5393152,16.6340211 43.4129348,16.6761263 43.2865543,16.7199158 C43.3258913,16.9759158 43.3635543,17.2302316 43.4012174,17.4862316 C43.5008152,17.6487579 43.5987391,17.8121263 43.6975,17.9754947 C43.467337,18.1270737 43.2371739,18.2803368 43.0061739,18.4319158 C42.868913,18.4639158 42.7316522,18.4967579 42.5952283,18.5296 C42.5081848,18.4529684 42.4194674,18.3780211 42.3324239,18.3013895 C42.2663043,18.3451789 42.2010217,18.3881263 42.1349022,18.4319158 C41.9968043,18.5245474 41.8603804,18.6163368 41.7231196,18.7089684 C41.5749783,18.7788632 41.4276739,18.8504421 41.2795326,18.9203368 C41.2251304,19.0390737 41.1690543,19.1594947 41.1146522,19.2790737 C40.9882717,19.1696 40.8627283,19.0618105 40.7363478,18.9523368 C40.655163,18.8226526 40.5723043,18.6912842 40.4894457,18.5616 C40.3915217,18.6592842 40.2919239,18.7569684 40.194,18.8554947 C39.9245,18.8336 39.655837,18.8108632 39.3871739,18.7898105 C39.2942717,18.6432842 39.1996957,18.4959158 39.1076304,18.3493895 C39.1611957,18.1708632 39.2172717,17.9914947 39.2716739,17.8121263 C39.3436522,17.6546526 39.4147935,17.4971789 39.4859348,17.3397053 C39.3704348,17.1712842 39.2549348,17.0020211 39.1394348,16.8344421 C39.0130543,16.9439158 38.8866739,17.0525474 38.7611304,17.1603368 C38.6297283,17.3068632 38.4974891,17.4542316 38.366087,17.6007579 C38.4481087,17.8769684 38.5309674,18.1548632 38.6121522,18.4319158 C38.6230326,18.6213895 38.63475,18.8117053 38.6456304,19.0028632 C38.48075,19.0618105 38.3158696,19.1216 38.1518261,19.1813895 L37.5266196,19.1813895 C37.4002391,19.2672842 37.2738587,19.3557053 37.1474783,19.4416 C37.037,19.6201263 36.9290326,19.8003368 36.8185543,19.9797053 C36.670413,20.1043368 36.5222717,20.2289684 36.3749674,20.3544421 C36.1171848,20.4462316 35.8585652,20.5388632 35.6016196,20.6314947 C35.5848804,20.7611789 35.5681413,20.8917053 35.5522391,21.0222316 C35.3597391,21.1308632 35.1680761,21.2386526 34.97725,21.3481263 C34.9605109,21.4247579 34.9437717,21.5005474 34.9270326,21.5763368 C34.6483261,21.5434947 34.3679457,21.5114947 34.0884022,21.4786526 C34.0557609,21.6032842 34.0222826,21.7287579 33.9896413,21.8533895 C33.8850217,21.8921263 33.7812391,21.9300211 33.6774565,21.9670737 C33.4682174,21.8912842 33.2606522,21.8146526 33.051413,21.7388632 C32.8706304,21.8314947 32.6890109,21.9241263 32.5090652,22.0159158 C32.591087,22.1077053 32.6731087,22.2003368 32.7551304,22.2929684 C33.0355109,22.3957053 33.3150543,22.4992842 33.5945978,22.6020211 C33.6330978,22.7704421 33.6715978,22.9388632 33.7092609,23.1072842 C33.8088587,23.2041263 33.9067826,23.3034947 34.0063804,23.4003368 C33.9787609,23.5140211 33.9511413,23.6285474 33.9235217,23.7422316 C33.8741413,24.0630737 33.8247609,24.3830737 33.7753804,24.7039158 C33.6607174,24.8344421 33.5452174,24.9649684 33.4305543,25.0954947 C33.1392935,25.1064421 32.8488696,25.1173895 32.5576087,25.1283368 C32.1140217,25.0407579 31.6687609,24.9540211 31.2251739,24.8664421 C30.9556739,24.8933895 30.6870109,24.9211789 30.4183478,24.9481263 C30.2651848,25.1434947 30.1111848,25.3397053 29.9571848,25.5359158 C29.7445978,25.8121263 29.5295,26.0900211 29.3160761,26.3662316 C29.3436957,26.6053895 29.3704783,26.8445474 29.3980978,27.0837053 C29.337837,27.2950737 29.2775761,27.5072842 29.2173152,27.7194947 C29.2884565,27.9468632 29.3604348,28.1759158 29.4307391,28.4041263 C29.5571196,28.5287579 29.682663,28.6533895 29.8090435,28.7780211 C30.0450652,28.8378105 30.2819239,28.8976 30.5162717,28.9573895 C30.5221304,29.1527579 30.5279891,29.3489684 30.5330109,29.5451789 C30.6317717,29.6041263 30.7296957,29.6630737 30.8292935,29.7237053 C31.031837,29.6319158 31.2352174,29.5392842 31.4377609,29.4466526 C31.8872065,29.4416 32.3374891,29.4365474 32.7877717,29.4314947 C32.8923913,29.3658105 32.9961739,29.3001263 33.0999565,29.2344421 C33.2807391,29.1098105 33.4615217,28.9851789 33.6423043,28.8605474 C33.7469239,28.7510737 33.8515435,28.6432842 33.9553261,28.5346526 C33.8774891,28.3325474 33.802163,28.1321263 33.725163,27.9308632 C33.7628261,27.7304421 33.802163,27.5291789 33.8398261,27.3287579 C34.0373478,27.1056 34.2348696,26.8832842 34.4332283,26.6601263 C34.6960326,26.5733895 34.9596739,26.4866526 35.2233152,26.3990737 C35.3597391,26.1927579 35.497837,25.9864421 35.6342609,25.7801263 C35.6610435,25.6386526 35.688663,25.4980211 35.7154457,25.3565474 C35.940587,25.3018105 36.1657283,25.2470737 36.3908696,25.1931789 C36.6160109,25.2639158 36.8394783,25.3346526 37.0646196,25.4045474 C37.4303696,25.2672842 37.7944457,25.1317053 38.1593587,24.9961263 C38.4263478,24.9161263 38.6925,24.8386526 38.9594891,24.7578105 C39.1017717,24.8192842 39.2432174,24.8816 39.3855,24.9430737 C39.4482717,25.0887579 39.5102065,25.2336 39.5721413,25.3792842 C39.75125,25.5628632 39.9278478,25.7481263 40.1061196,25.9342316 C40.2651413,26.0874947 40.425837,26.2424421 40.5856957,26.3957053 C40.8259022,26.4976 41.0652717,26.5986526 41.3054783,26.6997053 C41.5055109,26.8049684 41.7055435,26.9110737 41.9055761,27.0171789 C42.0528804,27.1308632 42.1993478,27.2453895 42.3466522,27.3590737 C42.4387174,27.5131789 42.5316196,27.6681263 42.6253587,27.8222316 C42.6119674,27.9586526 42.5985761,28.0950737 42.5851848,28.2314947 C42.5358043,28.3283368 42.4880978,28.4251789 42.4387174,28.5220211 C42.4964674,28.6138105 42.5533804,28.7064421 42.6119674,28.7982316 C42.6923152,28.7190737 42.7718261,28.6399158 42.8521739,28.5607579 C42.9450761,28.4327579 43.0388152,28.3056 43.1325543,28.1784421 C43.1727283,28.0942316 43.2129022,28.0108632 43.2514022,27.9266526 C43.2020217,27.8441263 43.1534783,27.7599158 43.1049348,27.6765474 C43.0296087,27.6016 42.9534457,27.5266526 42.8781196,27.4517053 C42.9233152,27.3860211 42.966837,27.3203368 43.0111957,27.2538105 C43.0471848,27.2016 43.082337,27.1477053 43.1183261,27.0946526 C43.2421957,27.1754947 43.3669022,27.2538105 43.4916087,27.3338105 C43.5451739,27.4079158 43.5987391,27.4828632 43.6514674,27.5578105 C43.7234457,27.5047579 43.79375,27.4517053 43.8648913,27.3994947 C43.736,27.2672842 43.6071087,27.1359158 43.4782174,27.0028632 C43.3183587,26.8933895 43.1585,26.7830737 42.9986413,26.6727579 C42.8387826,26.5540211 42.678087,26.4352842 42.5182283,26.3165474 C42.4353696,26.3216 42.349163,26.3249684 42.2663043,26.3300211 C42.0871957,26.2769684 41.9105978,26.2247579 41.7323261,26.1717053 C41.6210109,26.0302316 41.5096957,25.8904421 41.3992174,25.7481263 C41.3004565,25.5637053 41.2033696,25.3792842 41.1054457,25.1948632 C40.963163,25.1283368 40.8217174,25.0618105 40.6794348,24.9961263 C40.5949022,24.8470737 40.5103696,24.6963368 40.425837,24.5481263 C40.4517826,24.4900211 40.4785652,24.4327579 40.5061848,24.3754947 C40.4609891,24.2879158 40.4174674,24.1986526 40.3731087,24.1110737 C40.425837,24.0453895 40.4794022,23.9788632 40.5329674,23.9123368 C40.6836196,23.8778105 40.8351087,23.8424421 40.9849239,23.8070737 C41.1104674,23.8946526 41.234337,23.9839158 41.3598804,24.0714947 C41.4569674,24.1986526 41.5548913,24.3266526 41.6528152,24.4538105 C41.7591087,24.5902316 41.8662391,24.7266526 41.9725326,24.8622316 C42.0922174,24.9599158 42.2127391,25.0567579 42.3324239,25.1536 C42.4747065,25.2024421 42.6161522,25.2504421 42.7592717,25.2992842 C42.8345978,25.3919158 42.9099239,25.4845474 42.986087,25.5763368 C43.234663,25.6336 43.4840761,25.6900211 43.7318152,25.7481263 C43.8657283,25.9426526 43.9988043,26.1346526 44.1318804,26.3291789 C44.0875217,26.4883368 44.043163,26.6458105 43.9988043,26.8032842 C44.1184891,26.9279158 44.2390109,27.0508632 44.3586957,27.1746526 C44.5403152,27.3110737 44.7227717,27.4483368 44.9043913,27.5839158 C45.1454348,27.6184421 45.3848043,27.6538105 45.6250109,27.6891789 C45.7095435,27.8432842 45.7940761,27.9973895 45.8777717,28.1514947 C46.2025109,28.2929684 46.52725,28.4327579 46.8511522,28.5742316 C46.9089022,28.4470737 46.9666522,28.3190737 47.0252391,28.1910737 C46.8243696,28.0546526 46.624337,27.9182316 46.4251413,27.7826526 C46.3447935,27.6453895 46.2644457,27.5089684 46.1840978,27.3733895 C46.1313696,27.2453895 46.0778043,27.1173895 46.0242391,26.9902316 C46.1715435,26.8234947 46.3180109,26.6559158 46.4644783,26.4891789 C46.6737174,26.4706526 46.8821196,26.4529684 47.0913587,26.4361263 L47.6512826,26.4361263 C47.8462935,26.3561263 48.0421413,26.2769684 48.2379891,26.1978105 C48.3233587,26.1093895 48.4087283,26.0209684 48.4940978,25.9342316 C48.3149891,25.5805474 48.1367174,25.2268632 47.9584457,24.8723368 C48.2513804,24.7468632 48.5443152,24.6205474 48.838087,24.4950737 C49.2189022,24.2171789 49.6022283,23.9392842 49.9847174,23.6613895 C50.2650978,23.6874947 50.5454783,23.7127579 50.8258587,23.7380211 C51.0551848,23.5611789 51.2845109,23.3843368 51.513837,23.2074947 C51.8578261,23.2327579 52.2018152,23.2571789 52.5466413,23.2841263 C52.9031848,23.4483368 53.2597283,23.6117053 53.6171087,23.7750737 C53.8849348,23.9401263 54.1527609,24.1043368 54.420587,24.2685474 L54.420587,24.9506526 C54.2038152,25.0382316 53.9870435,25.1274947 53.7702717,25.2159158 C53.477337,25.2782316 53.1835652,25.3413895 52.8906304,25.4045474 C52.5851413,25.2908632 52.2796522,25.1771789 51.9733261,25.0634947 C51.6167826,25.0382316 51.2602391,25.0129684 50.9028587,24.9877053 C50.686087,25.1763368 50.4693152,25.3658105 50.2533804,25.5552842 C49.9989457,25.6319158 49.742837,25.7060211 49.4884022,25.7834947 C49.2197391,25.9224421 48.95275,26.0605474 48.6849239,26.1994947 C48.3785978,26.3384421 48.0739457,26.4773895 47.7676196,26.6154947 C47.7927283,26.8681263 47.817837,27.1207579 47.8437826,27.3733895 C48.1124457,27.6268632 48.3794348,27.8778105 48.6472609,28.1312842 C48.9276413,28.4605474 49.2080217,28.7872842 49.4884022,29.1165474 C49.7302826,29.0533895 49.972163,28.9902316 50.2148804,28.9270737 C50.3035978,28.7754947 50.3939891,28.6239158 50.4827065,28.4723368 C50.6484239,28.5986526 50.8141413,28.7249684 50.9798587,28.8512842 C51.3246848,28.8007579 51.6686739,28.7493895 52.0118261,28.7005474 C52.1273261,28.5481263 52.2419891,28.3965474 52.3566522,28.2449684 C52.7140326,28.2702316 53.0705761,28.2954947 53.4271196,28.3216 C53.3969891,28.5194947 53.3668587,28.7173895 53.3367283,28.9152842 C53.3250109,29.4373895 53.3149674,29.9586526 53.304087,30.4807579 C53.3317065,30.7064421 53.3593261,30.9321263 53.3869457,31.1578105 L60.4198913,31.1578105 C60.4157065,31.1392842 60.4123587,31.1207579 60.4081739,31.1022316 C60.6375,30.9750737 60.8668261,30.8487579 61.0969891,30.7224421 C61.2434565,30.8672842 61.3899239,31.0129684 61.5363913,31.1578105 L68.1968913,31.1578105 C68.3274565,31.0761263 68.4588587,30.9944421 68.5894239,30.9127579 C68.6153696,30.8992842 68.6396413,30.8866526 68.6664239,30.8740211 C68.7668587,30.9683368 68.8681304,31.0634947 68.9685652,31.1578105 L74.5627826,31.1578105 C74.496663,30.6719158 74.4297065,30.1860211 74.363587,29.7009684 C74.325087,29.2849684 74.286587,28.8681263 74.2489239,28.4512842 C74.3183913,28.2432842 74.3886957,28.0361263 74.458163,27.8289684 C74.8113587,28.9321263 75.1101522,30.0428632 75.3562174,31.1578105 L76.9757283,31.1578105 C76.6074674,29.4180211 76.1170109,27.6866526 75.4951522,25.9763368 C75.439913,25.8205474 75.3771413,25.6681263 75.3177174,25.5131789" id="Fill-5"></path>
                        <polygon id="Fill-7" points="32.1069076 17.6942316 31.7863533 18.2357053 31.4398533 18.3670737 31.3728967 18.8437053 31.1594728 19.0028632 31.1192989 19.2386526 30.8799293 19.4247579 30.8272011 19.8340211 31.0389511 19.9258105 31.772962 19.7413895 32.2399837 19.6091789 32.5730924 19.1603368 32.7455054 18.6584421 32.9865489 18.3813895 32.6659946 17.7860211"></polygon>
                        <polygon id="Fill-9" points="30.033013 12.8161684 30.8456978 12.9163789 31.5981217 12.7159579 32.4509804 12.4540632 32.1254043 11.6692211 31.5579478 11.6296421 30.8657848 11.5479579 30.1150348 11.4469053 29.7492848 11.7492211 29.9518283 12.1113263 29.68735 12.5349053"></polygon>
                        <polygon id="Fill-11" points="32.9069543 19.9797895 33.1337696 20.2694737 32.5328348 20.9566316 33.0124109 20.7578947 33.2794 20.8370526 33.7589761 20.6004211 34.5733348 20.6004211 35.4128022 20.5204211 35.6530087 20.3090526 35.49315 20.0311579 35.8522043 19.7018947 35.4395848 19.3709474 35.1332587 18.9221053 34.9323891 18.4597895 34.666237 18.1574737 34.6402913 17.8526316 34.2929543 17.5486316 34.3465196 17.1924211 34.6930196 16.9414737 34.7599761 16.4665263 34.7331935 15.872 33.1731065 15.9907368 32.9864652 16.7174737 33.0935957 17.3381053 33.2534543 17.9183158 33.6928565 18.2627368 33.973237 18.7907368 33.586563 19.0804211 33.3195739 19.0804211 33.3463565 19.6092632 33.0391935 19.7549474"></polygon>
                    </g>
                </g>
            </g>
        </g>
    </g>
</svg>